# xmcd
#
# Track frame offsets:
#	150
#	18123
#	46370
#	80981
#	92257
#	114099
#	151426
#	170661
#	191432
#	207380
#	229165
#	245237
#	260602
#	273470
#	286036
#	299442
#	328195
#	342222
#
# Disc length: 4795 seconds
#
# Revision: 2
# Processed by: cddbd v1.5.2PL0 Copyright (c) Steve Scherf et al.
# Submitted via: EZCDAudioConverter 6.0.0.1
#
DISCID=0712b912
DTITLE=Various Artist - Akella Presents - vol.66 - Russia-Blues  CD1
DYEAR=2016
DGENRE=Blues
TTITLE0=Crossroads - Blues Lives In Russia
TTITLE1=Blues Cousins - Rock'n'Roll (version 1)
TTITLE2=Nickolay Sadikov and Blues Hammer Band - Green Bottle Blues
TTITLE3=Alexander Dolgov and The Rain Group - Baby, Please Don't Go
TTITLE4=Ragtime - Hoochie Coochie Man
TTITLE5=Petrovitch Harmonica Man and The Hot Rod Band - Goodmorning, Mr. Blues
TTITLE6=Off Beat - Slow Down
TTITLE7=Boogie Bottles - Give Me Back My Wig
TTITLE8=Alexander Rastopchin - Rolling Down the Road
TTITLE9=Svet and Al Boogie Band - Shake A Hand
TTITLE10=Vladimir Rusinov and Jumping Cats - Lucky You
TTITLE11=Crossroads - We Are Still Around
TTITLE12=Dr.Nick - Temble Days
TTITLE13=Blues Doctors - Your Blues Doctor
TTITLE14=Mishouris and Kojekina - Sometimes I Wonder
TTITLE15=Blackmailers - Brujo
TTITLE16=Blues Cousins - Rock'n'Roll (version 2)
TTITLE17=Madera Hard Blues - Madera Hard Blues (Instrumental)
EXTD=
EXTT0=
EXTT1=
EXTT2=
EXTT3=
EXTT4=
EXTT5=
EXTT6=
EXTT7=
EXTT8=
EXTT9=
EXTT10=
EXTT11=
EXTT12=
EXTT13=
EXTT14=
EXTT15=
EXTT16=
EXTT17=
PLAYORDER=
